<?xml version="1.0" encoding="UTF-8"?>
<svg width="1200pt" height="1200pt" version="1.1" viewBox="0 0 1200 1200" xmlns="http://www.w3.org/2000/svg">
 <path d="m793.82 17.859h251.02c39.375 0 75.188 16.078 101.16 42.047 25.969 25.922 42.047 61.734 42.047 101.16v251.02c0 39.422-16.078 75.188-42.047 101.16-25.922 25.922-61.734 42.047-101.16 42.047h-251.02c-39.375 0-75.188-16.078-101.16-42.047s-42.047-61.734-42.047-101.16v-251.02c0-39.375 16.078-75.188 42.047-101.16 25.922-25.969 61.734-42.047 101.16-42.047zm-638.63 626.86h251.02c39.422 0 75.188 16.078 101.16 42.047 25.922 25.922 42.047 61.734 42.047 101.16v251.02c0 39.375-16.078 75.188-42.047 101.16-25.969 25.922-61.734 42.047-101.16 42.047h-251.02c-39.375 0-75.188-16.125-101.16-42.047-25.922-25.922-42.047-61.734-42.047-101.16v-251.02c0-39.375 16.125-75.188 42.047-101.16 25.922-25.922 61.734-42.047 101.16-42.047zm638.63 0h251.02c39.422 0 75.188 16.078 101.16 42.047 25.969 25.922 42.047 61.734 42.047 101.16v251.02c0 39.375-16.078 75.188-42.047 101.16-25.922 25.922-61.734 42.047-101.16 42.047h-251.02c-39.375 0-75.188-16.125-101.16-42.047s-42.047-61.734-42.047-101.16v-251.02c0-39.375 16.078-75.188 42.047-101.16 25.922-25.922 61.734-42.047 101.16-42.047zm-638.63-626.86h251.02c39.422 0 75.188 16.078 101.16 42.047 25.922 25.922 42.047 61.734 42.047 101.16v251.02c0 39.422-16.078 75.188-42.047 101.16-25.969 25.922-61.734 42.047-101.16 42.047h-251.02c-39.375 0-75.188-16.078-101.16-42.047-25.922-25.969-42.047-61.734-42.047-101.16v-251.02c0-39.375 16.125-75.188 42.047-101.16 25.922-25.969 61.734-42.047 101.16-42.047z"/>
</svg>
