<?xml version="1.0" encoding="UTF-8"?>
<svg width="1200pt" height="1200pt" version="1.1" viewBox="0 0 1200 1200" xmlns="http://www.w3.org/2000/svg">
 <path d="m888 348c0-9.6016-3.7188-18.602-10.559-25.441-13.559-13.559-37.32-13.559-50.879 0l-226.56 226.56-226.56-226.56c-14.039-14.039-36.84-14.039-50.879 0-6.8398 6.8398-10.559 15.84-10.559 25.441s3.7188 18.602 10.559 25.441l226.56 226.56-226.56 226.56c-6.8398 6.8398-10.559 15.84-10.559 25.441s3.7188 18.602 10.559 25.441c13.559 13.559 37.32 13.559 50.879 0l226.56-226.56 226.56 226.56c13.559 13.559 37.32 13.559 50.879 0 6.8398-6.8398 10.559-15.84 10.559-25.441s-3.7188-18.602-10.559-25.441l-226.56-226.56 226.56-226.56c6.8398-6.8398 10.559-15.84 10.559-25.441z"/>
</svg>
