<?xml version="1.0" encoding="UTF-8"?>
<svg width="1200pt" height="1200pt" version="1.1" viewBox="0 0 1200 1200" xmlns="http://www.w3.org/2000/svg">
 <path d="m1067.5 132.52c-26.25-26.109-65.203-34.688-99.984-22.031l-800.02 308.02c-38.531 13.875-63.984 50.672-63.422 91.641s27.047 77.062 65.953 89.859l323.48 107.48 106.5 322.5c12.562 38.719 48.281 65.25 89.016 66 39.656 0.32812 75.281-24.234 88.969-61.5l308.02-800.02v0.046875c14.719-34.688 7.4062-74.719-18.516-102zm-50.016 75.516-308.02 800.02 0.046875-0.046875c-2.7656 8.5781-11.016 14.156-20.016 13.5-8.7188-0.42188-16.266-6.1875-18.984-14.484l-106.5-319.5 186-184.03c14.766-14.766 14.766-38.719 0-53.484s-38.719-14.766-53.484 0l-183.52 183.52-319.5-106.03c-8.2969-2.6719-14.109-10.266-14.484-18.984-0.51562-8.9531 5.0156-17.109 13.5-20.016l800.02-308.02-0.046875 0.046875c7.8281-2.8125 16.594-0.84375 22.5 5.0156 5.8594 5.9062 7.8281 14.625 5.0156 22.453z"/>
</svg>
